<?xml version="1.0" encoding="utf-8"?>
<!-- Generator: Adobe Illustrator 23.0.1, SVG Export Plug-In . SVG Version: 6.00 Build 0)  -->
<svg version="1.1" id="Layer_1" xmlns="http://www.w3.org/2000/svg" xmlns:xlink="http://www.w3.org/1999/xlink" x="0px" y="0px"
	 width="1182px" height="340.533px" viewBox="-328.5 -89.5 1182 340.533" enable-background="new -328.5 -89.5 1182 340.533"
	 xml:space="preserve">
<g>
	<g>
		<path fill="#31519C" d="M-240.127,9.285c0,24.219,4.893,53.206,42.27,53.206c29.319,0,91.423,0,91.423,0V-2.39h-71.593v26.829
			h43.984V36.97c0,0-45.282,0-57.792,0c-21.698,0-18.537-21.052-18.537-27.241c0-15.422,2.874-23.792,17.248-23.792h86.686v-27.895
			h-86.251C-226.75-41.959-240.127-21.851-240.127,9.285L-240.127,9.285z"/>
		<polygon fill="#31519C" points="-80.466,62.491 35.961,62.491 35.961,36.966 -51.357,36.966 -51.357,24.439 35.961,24.439 
			35.961,-0.872 -51.357,-0.872 -51.357,-11.905 35.961,-11.905 35.961,-41.959 -80.466,-41.959 		"/>
		<polygon fill="#31519C" points="160.235,35.019 101.592,-41.959 61.913,-41.959 61.913,62.491 89.082,62.491 89.082,-14.503 
			147.724,62.491 187.404,62.491 187.404,-41.959 160.235,-41.959 		"/>
		<polygon fill="#31519C" points="216.829,62.491 333.257,62.491 333.257,36.966 245.937,36.966 245.937,24.439 333.257,24.439 
			333.257,-0.872 245.937,-0.872 245.937,-11.905 333.257,-11.905 333.257,-41.959 216.829,-41.959 		"/>
		<path fill="#31519C" d="M489.461-4.769c0-14.492-0.287-37.194-34.925-37.194h-95.306V62.491h28.034V31.998h43.551l24.372,30.493
			h36.218L465.318,28.97C484.424,26.13,489.461,12.555,489.461-4.769L489.461-4.769z M446.549,6.434h-59.307v-19.682h59.734
			c7.98,0,13.583,2.375,13.583,8.873C460.56,2.108,459.262,6.434,446.549,6.434L446.549,6.434z"/>
		<polygon fill="#31519C" points="689.443,-41.959 660.345,-41.959 660.345,62.491 765.127,62.491 765.127,36.966 689.443,36.966 		
			"/>
		<path fill="#31519C" d="M552.92-41.959L494.278,62.495h31.915l11.504-20.549h68.265l11.43,20.549h31.913l-58.65-104.454H552.92
			L552.92-41.959z M552.105,16.17l19.683-35.14l19.731,35.14H552.105L552.105,16.17z"/>
	</g>
	<g>
		<path fill="#31519C" d="M-201.802,99.041h-86.235v27.896v76.559c0,0,62.096,0,91.421,0c35.077,0,42.253-22.071,42.253-53.206
			C-154.363,119.153-167.732,99.041-201.802,99.041L-201.802,99.041z M-202.665,177.966c-12.516,0-57.788,0-57.788,0v-51.033h59.079
			c16.101,0,17.248,10.101,17.248,23.792C-184.122,163.26-183.833,177.966-202.665,177.966L-202.665,177.966z"/>
		<polygon fill="#31519C" points="96.695,176.019 38.052,99.041 -1.63,99.041 -1.63,203.491 25.55,203.491 25.55,126.497 
			84.193,203.491 123.866,203.491 123.866,99.041 96.695,99.041 		"/>
		<path fill="#31519C" d="M195.143,99.041l-58.654,104.454h31.916l11.505-20.549h68.272l11.421,20.549h31.913L232.857,99.041
			H195.143L195.143,99.041z M194.31,157.17l19.682-35.14l19.732,35.14H194.31L194.31,157.17z"/>
		<polygon fill="#31519C" points="-83.474,144.015 -120.705,99.041 -158.667,99.041 -98.717,167.386 -98.717,203.491 
			-68.958,203.491 -68.958,167.386 -9.024,99.041 -46.973,99.041 		"/>
		<polygon fill="#31519C" points="381.629,171.802 347.129,99.041 302.289,99.041 302.289,203.491 329.461,203.491 329.461,123.797 
			369.126,203.491 394.14,203.491 433.818,123.797 433.818,203.491 460.969,203.491 460.969,99.041 416.133,99.041 		"/>
		<polygon fill="#31519C" points="492.394,99.041 492.394,203.491 521.724,203.491 521.509,99.041 		"/>
		<path fill="#31519C" d="M542.182,150.285c0,31.139,7.175,53.206,42.268,53.206c29.317,0,82.348,0,82.348,0v-25.41
			c0,0-63.82-0.115-76.322-0.115c-18.824,0-18.535-14.706-18.535-27.241c0-13.699,1.143-23.792,17.234-23.792h77.623V99.041h-77.186
			C555.546,99.041,542.182,119.149,542.182,150.285L542.182,150.285z"/>
		<path fill="#31519C" d="M782.214,139.912h-62.967c-4.518,0-9.594-1.298-9.594-6.27s5.076-6.27,9.594-6.27
			c12.511,0,90.345-0.105,90.345-0.105v-25.412c0,0-67.91,0-97.252,0c-24.782,0-30.815,12.76-30.815,31.787
			s6.033,31.797,30.815,31.797h62.967c4.534,0,9.594,1.279,9.594,6.268c0,4.98-5.06,6.252-9.594,6.252
			c-12.494,0-90.341,0.115-90.341,0.115v25.409c0,0,67.923,0,97.248,0c24.791,0,30.823-12.763,30.823-31.776
			C813.037,152.672,807.005,139.912,782.214,139.912L782.214,139.912z"/>
	</g>
	<g>
		<path fill="#31519C" d="M-240.127,9.285c0,24.219,4.893,53.206,42.27,53.206c29.319,0,91.423,0,91.423,0V-2.39h-71.593v26.829
			h43.984V36.97c0,0-45.282,0-57.792,0c-21.698,0-18.537-21.052-18.537-27.241c0-15.422,2.874-23.792,17.248-23.792h86.686v-27.895
			h-86.251C-226.75-41.959-240.127-21.851-240.127,9.285L-240.127,9.285z"/>
		<polygon fill="#31519C" points="-80.466,62.491 35.961,62.491 35.961,36.966 -51.357,36.966 -51.357,24.439 35.961,24.439 
			35.961,-0.872 -51.357,-0.872 -51.357,-11.905 35.961,-11.905 35.961,-41.959 -80.466,-41.959 		"/>
		<polygon fill="#31519C" points="160.235,35.019 101.592,-41.959 61.913,-41.959 61.913,62.491 89.082,62.491 89.082,-14.503 
			147.724,62.491 187.404,62.491 187.404,-41.959 160.235,-41.959 		"/>
		<polygon fill="#31519C" points="216.829,62.491 333.257,62.491 333.257,36.966 245.937,36.966 245.937,24.439 333.257,24.439 
			333.257,-0.872 245.937,-0.872 245.937,-11.905 333.257,-11.905 333.257,-41.959 216.829,-41.959 		"/>
		<path fill="#31519C" d="M489.461-4.769c0-14.492-0.287-37.194-34.925-37.194h-95.306V62.491h28.034V31.998h43.551l24.372,30.493
			h36.218L465.318,28.97C484.424,26.13,489.461,12.555,489.461-4.769L489.461-4.769z M446.549,6.434h-59.307v-19.682h59.734
			c7.98,0,13.583,2.375,13.583,8.873C460.56,2.108,459.262,6.434,446.549,6.434L446.549,6.434z"/>
		<polygon fill="#31519C" points="689.443,-41.959 660.345,-41.959 660.345,62.491 765.127,62.491 765.127,36.966 689.443,36.966 		
			"/>
		<path fill="#31519C" d="M552.92-41.959L494.278,62.495h31.915l11.504-20.549h68.265l11.43,20.549h31.913l-58.65-104.454H552.92
			L552.92-41.959z M552.105,16.17l19.683-35.14l19.731,35.14H552.105L552.105,16.17z"/>
	</g>
	<g>
		<path fill="#31519C" d="M-201.802,99.041h-86.235v27.896v76.559c0,0,62.096,0,91.421,0c35.077,0,42.253-22.071,42.253-53.206
			C-154.363,119.153-167.732,99.041-201.802,99.041L-201.802,99.041z M-202.665,177.966c-12.516,0-57.788,0-57.788,0v-51.033h59.079
			c16.101,0,17.248,10.101,17.248,23.792C-184.122,163.26-183.833,177.966-202.665,177.966L-202.665,177.966z"/>
		<polygon fill="#31519C" points="96.695,176.019 38.052,99.041 -1.63,99.041 -1.63,203.491 25.55,203.491 25.55,126.497 
			84.193,203.491 123.866,203.491 123.866,99.041 96.695,99.041 		"/>
		<path fill="#31519C" d="M195.143,99.041l-58.654,104.454h31.916l11.505-20.549h68.272l11.421,20.549h31.913L232.857,99.041
			H195.143L195.143,99.041z M194.31,157.17l19.682-35.14l19.732,35.14H194.31L194.31,157.17z"/>
		<polygon fill="#31519C" points="-83.474,144.015 -120.705,99.041 -158.667,99.041 -98.717,167.386 -98.717,203.491 
			-68.958,203.491 -68.958,167.386 -9.024,99.041 -46.973,99.041 		"/>
		<polygon fill="#31519C" points="381.629,171.802 347.129,99.041 302.289,99.041 302.289,203.491 329.461,203.491 329.461,123.797 
			369.126,203.491 394.14,203.491 433.818,123.797 433.818,203.491 460.969,203.491 460.969,99.041 416.133,99.041 		"/>
		<polygon fill="#31519C" points="492.394,99.041 492.394,203.491 521.724,203.491 521.509,99.041 		"/>
		<path fill="#31519C" d="M542.182,150.285c0,31.139,7.175,53.206,42.268,53.206c29.317,0,82.348,0,82.348,0v-25.41
			c0,0-63.82-0.115-76.322-0.115c-18.824,0-18.535-14.706-18.535-27.241c0-13.699,1.143-23.792,17.234-23.792h77.623V99.041h-77.186
			C555.546,99.041,542.182,119.149,542.182,150.285L542.182,150.285z"/>
		<path fill="#31519C" d="M782.214,139.912h-62.967c-4.518,0-9.594-1.298-9.594-6.27s5.076-6.27,9.594-6.27
			c12.511,0,90.345-0.105,90.345-0.105v-25.412c0,0-67.91,0-97.252,0c-24.782,0-30.815,12.76-30.815,31.787
			s6.033,31.797,30.815,31.797h62.967c4.534,0,9.594,1.279,9.594,6.268c0,4.98-5.06,6.252-9.594,6.252
			c-12.494,0-90.341,0.115-90.341,0.115v25.409c0,0,67.923,0,97.248,0c24.791,0,30.823-12.763,30.823-31.776
			C813.037,152.672,807.005,139.912,782.214,139.912L782.214,139.912z"/>
	</g>
</g>
</svg>
