<svg id="Layer_1" data-name="Layer 1" xmlns="http://www.w3.org/2000/svg" viewBox="0 0 792 612"><defs><style>.cls-1{fill:#010101;}</style></defs><path class="cls-1" d="M237.31,223.75h44.78L242.33,382.16H197.69Z"/><path class="cls-1" d="M303.26,225.33H348l-9.52,36.75h18.62L350.47,289H331.72l-14.24,57.22q-2.31,9.54,8.86,9.42h7.46l-6.68,26.6q-13.51,1.13-25.31,1.14c-13.64.13-22.88-1.63-27.73-5.35q-8.18-5.7-3.05-25Z"/><path class="cls-1" d="M373.64,262.1h44.77L388.29,382.16H343.64Z"/><path class="cls-1" d="M438.74,262.12h44.79l-19.85,79.22q-3.85,14.43,8.82,14.32c8.74.08,14.31-4.7,16.78-14.32l19.85-79.22h44.74l-30,120.07H479.23l3.52-14.53h-.5q-13.53,17.46-38,17.44c-10.29.13-18.19-2.07-23.71-6.68-5.9-4.52-7.41-13.09-4.5-25.61Z"/><path class="cls-1" d="M750.57,265.25c-5.83-4.4-14-6.54-24.58-6.48a56.69,56.69,0,0,0-20.94,4.08,46.37,46.37,0,0,0-18.9,14.43c-1.1-6.22-3.93-10.86-8.5-14s-11.73-4.55-21.29-4.55q-24.58,0-38.3,17.93h-.51l3.58-14.64H576L545.85,382.11h44.82l19.87-79.22q3.69-14.43,16.64-14.22,12.86-.21,9,14.24l-19.87,79.2H661l19.88-79.22q3.75-14.43,17-14.22c8.64-.14,11.61,4.6,9,14.22L687.1,382.11h19.74c14,0,27.35-9.28,30.48-22l17.19-68.62C757.51,278.93,756.22,270.17,750.57,265.25Z"/><path class="cls-1" d="M188.23,382.16l-6-158.41H155.56c-22.24.81-40.91,13-51.47,31.49L36,382.16l51.5-.05,12.07-27.47h38.56l-1.5,27.52Zm-75.3-57.89,30.5-66.08-3.63,66.08Z"/><path class="cls-1" d="M778.26,370.06a12.24,12.24,0,1,1-12.2-11.91A12,12,0,0,1,778.26,370.06Zm-21.42,0a9.22,9.22,0,0,0,9.29,9.51,9.12,9.12,0,0,0,9.08-9.44c0-5.3-3.85-9.59-9.15-9.59A9.26,9.26,0,0,0,756.84,370.06Zm7.33,6.24h-2.76V364.39A24.06,24.06,0,0,1,766,364a7.43,7.43,0,0,1,4.14.87,3.32,3.32,0,0,1,1.16,2.62,3.07,3.07,0,0,1-2.47,2.76v.14a3.54,3.54,0,0,1,2.18,2.91,9,9,0,0,0,.87,3h-3a10.11,10.11,0,0,1-.94-2.9c-.22-1.31-1-1.89-2.47-1.89h-1.31Zm.07-6.75h1.31c1.53,0,2.76-.51,2.76-1.74s-.8-1.82-2.54-1.82a6.23,6.23,0,0,0-1.53.15Z"/></svg>