<?xml version="1.0" standalone="no"?>
<!DOCTYPE svg PUBLIC "-//W3C//DTD SVG 20010904//EN"
 "http://www.w3.org/TR/2001/REC-SVG-20010904/DTD/svg10.dtd">
<svg version="1.0" xmlns="http://www.w3.org/2000/svg"
 width="168.000000pt" height="168.000000pt" viewBox="0 0 168.000000 168.000000"
 preserveAspectRatio="xMidYMid meet">
<metadata>
Created by potrace 1.14, written by Peter Selinger 2001-2017
</metadata>
<g transform="translate(0.000000,168.000000) scale(0.100000,-0.100000)"
fill="#000000" stroke="none">
<path d="M573 1670 c-49 -11 -77 -34 -143 -113 -106 -129 -129 -201 -124 -396
5 -165 24 -187 161 -179 60 4 104 15 188 47 107 41 154 65 104 56 -175 -35
-275 -18 -308 50 -26 53 -11 168 33 253 15 29 78 68 127 77 35 7 202 7 220 0
8 -3 26 -36 39 -73 29 -83 78 -133 180 -186 l75 -40 -53 59 c-59 67 -92 129
-97 180 l-4 35 30 -17 c17 -10 56 -45 88 -78 46 -48 64 -77 91 -145 59 -153
89 -243 85 -251 -6 -9 -45 0 -45 10 0 25 -70 104 -134 154 -41 31 -77 57 -80
57 -9 0 4 -70 21 -112 8 -21 40 -61 70 -88 31 -28 53 -54 50 -57 -11 -10 -368
-93 -547 -126 -94 -18 -443 -91 -479 -101 l-45 -11 -38 -115 -38 -115 3 -215
2 -215 50 -2 c28 -1 137 -4 243 -6 l193 -5 72 62 c40 35 147 141 239 235 l166
172 37 -65 c20 -36 34 -70 31 -75 -3 -5 -18 -12 -33 -16 -15 -3 -51 -17 -79
-30 l-52 -24 -1 -73 c0 -40 -2 -85 -4 -101 -4 -25 1 -22 49 32 70 77 136 102
118 44 -9 -29 42 35 67 84 12 24 27 42 33 40 6 -3 90 -37 187 -76 97 -39 180
-71 184 -71 4 0 30 18 58 41 28 22 64 43 79 46 15 3 28 11 28 17 0 6 -27 78
-61 159 -34 81 -59 151 -55 154 3 4 31 -1 61 -9 30 -8 56 -13 58 -11 3 2 -17
59 -44 127 -27 70 -50 148 -54 182 -3 32 -8 70 -10 84 -2 14 -7 54 -10 90 -21
212 -46 358 -75 430 -38 93 -87 161 -142 197 -39 27 -47 28 -152 27 -68 -1
-129 -7 -158 -16 -40 -14 -56 -14 -125 -1 -91 17 -283 24 -330 13z m694 -167
c49 -63 69 -104 101 -203 30 -90 122 -398 122 -405 0 -6 -90 26 -94 33 -3 6
-50 224 -62 292 -10 53 -56 213 -72 248 -9 20 -28 50 -42 66 -23 26 -23 28 -3
17 11 -6 34 -28 50 -48z"/>
</g>
</svg>
