<?xml version="1.0" encoding="utf-8"?>
<!-- Generator: Adobe Illustrator 28.0.0, SVG Export Plug-In . SVG Version: 6.00 Build 0)  -->
<svg version="1.1" id="Layer_1" xmlns="http://www.w3.org/2000/svg" xmlns:xlink="http://www.w3.org/1999/xlink" x="0px" y="0px"
	 viewBox="0 0 243.64 65.47" style="enable-background:new 0 0 243.64 65.47;" xml:space="preserve">
<style type="text/css">
	.st0{fill:#DF1F26;}
</style>
<g>
	<g id="layer5" transform="translate(-506.97705,-1450.5418)">
		<path id="path48-5" class="st0" d="M681.94,1514.02c0.22-0.58,7.94-21.79,9.39-25.8c15.14-2.95,34.74-7.22,38.82-8.46
			c0.19-0.06,0.48-0.39,0.46-0.44c-0.19-0.32-0.43-0.63-0.69-0.9c-1.14-1.15-2.38-2.21-3.4-3.45c-0.55-0.67-0.76-1.64-1.03-2.51
			c-0.23-0.75-0.32-1.53-0.46-2.3c-0.02-0.09-0.01-0.25,0.03-0.27c0.1-0.05,0.27-0.08,0.35-0.02c1.27,0.91,2.59,1.75,3.77,2.76
			c1.12,0.96,2.15,2.05,3.11,3.17c0.5,0.59,0.66,1.47,1.18,2.02c0.29,0.3,1.02,0.18,1.55,0.26c-0.04-0.25-0.07-0.51-0.14-0.76
			c-0.24-0.83-0.46-1.66-0.75-2.48c-1.27-3.35-2.45-7.58-4.17-9.98c-1.32-1.88-3.6-3.87-5.55-5.04c-0.47-0.18-0.59,0.03-0.63,0.43
			c0,3.44,2.55,6,4.74,8.41c0.19,0.23,0.4,0.43,0.83,0.9c-1.29-0.52-2.61-1.09-3.81-1.85c-1.34-0.95-2.77-1.83-3.84-3.03
			c-1.85-2.36-1.84-4.56-2.75-5.7c-0.36-0.33-1.02-0.38-1.59-0.51c-4.64-0.6-7.97,0.16-10.03,1.26c-0.2,0.11-0.53,0.31-0.71,0.46
			c-2.62,2.16-4.67,9.18-1.3,12.41c1.38,1.33,3.24,1.33,5,1.26c2.19-0.09,3.66-0.55,6.11-0.77c-0.12,0.16-0.21,0.41-0.37,0.47
			c-1.27,0.51-2.55,0.98-3.82,1.47c-1.39,0.53-2.75,1.14-4.16,1.6c-1.5,0.49-3.95,0.47-5.59,0.43c-2.3-0.42-2.66-1.47-3.27-2.76
			c-1.55-3.24-0.71-8.16-0.23-10.78c0.63-3.34,2.66-6.21,4.8-8.79c2.86-2.84,4.62-3.68,8.65-4.18c3.25,0.02,6.45,0.52,9.64,1.05
			c0.52,0.08,1.06,0.31,1.56,0.25c1.32-0.16,3.38-0.85,4.49-0.93c3.7-0.37,7.51-0.58,10.88,1.92c2.11,1.86,3.4,4.09,4.13,6.68
			c2.31,7.73,2.76,18.95,3.51,22.62c0.89,4.26,3.78,10.82,3.97,11.3c0.01,0.02,0,0.04-0.01,0.05c-0.09,0.09-0.13,0.09-0.31,0.06
			c-0.62-0.16-1.23-0.36-1.85-0.5c-0.93-0.11-1.9-0.6-2.83-0.34c1.7,4.12,3.32,7.75,4.94,11.64c0.02,0.04,0.03,0.1,0.03,0.14
			c-0.02,0.26-0.23,0.45-0.44,0.47c-2.76,0.22-4.6,3.41-6.22,3.46c-0.8,0.02-2.13-0.91-2.57-0.84c-0.48,0.01-0.66,0.23-0.88,0.67
			c-0.46,0.79-1.27,2.64-1.53,2.89c-0.46,0.45-0.92,0.87-1.54,1.45c0-0.49,0.15-1,0.25-1.48c-0.37,0.05-0.75,0.05-1.11,0.16
			c-1.67,0.47-2.73,1.73-3.77,3.01c-0.49,0.6-0.97,1.21-1.66,1.74c0.08-0.51,0.23-1.02,0.24-1.53c0.05-1.38,0.22-2.73,0.09-4.13
			c-0.03-0.27-0.04-0.72,0.04-0.98c0.27-0.96,0.87-1.08,1.35-1.5c0.91-0.79,2.91-2.11,2.71-3.04c-0.95-0.54-7.63-3.68-9.56-4.86
			c-0.21-0.13-0.46-0.43-0.57-0.65c-0.41-0.89-1.21-2.78-1.52-3.27c-5.76,6.17-11.49,12.37-17.8,17.97
			C697.97,1514.02,689.95,1514.02,681.94,1514.02L681.94,1514.02z M742.97,1479.91c0.19-0.06,0.39-0.08,0.41-0.14
			c0.04-0.15,0-0.32-0.04-0.48c-0.42-1.39-0.84-2.77-1.26-4.16c-0.27-0.89-0.52-1.78-0.8-2.67c-0.3-0.95-0.63-1.88-0.91-2.83
			c-0.28-0.92-0.48-1.88-0.79-2.79c-0.51-1.51-1.04-3.01-1.62-4.49c-0.43-1.09-0.88-2.19-1.48-3.19c-0.57-0.96-1.28-1.85-2.03-2.68
			c-0.51-0.56-1.19-0.98-1.8-1.45c-0.04-0.03-0.13,0.03-0.2,0.05c0.03,0.07,0.04,0.16,0.09,0.21c0.29,0.27,0.67,0.47,0.86,0.79
			c0.61,1.04,1.22,2.1,1.7,3.2c0.43,0.99,0.75,2.03,1.02,3.08c0.43,1.61,0.77,3.23,1.15,4.86c0.14,0.58,0.26,1.16,0.4,1.74
			c0.43,1.82,0.88,3.63,1.27,5.46c0.29,1.38,0.5,2.77,0.77,4.15c0.04,0.19,0.24,0.44,0.42,0.5
			C741.07,1479.39,742.04,1479.65,742.97,1479.91L742.97,1479.91z"/>
	</g>
	<g id="layer2" transform="translate(-506.97705,-1450.5418)">
		<g id="g80" transform="translate(487.87964,896.95304)">
			<path id="path71" class="st0" d="M181.92,570.21l-8.12,5.96c-0.71,0.52-1.25,1.22-1.52,1.95l-14.15,38.95h14.14l5.87-16.16h5.06
				l-5.88,16.16h14.14l14.13-38.95c0.27-0.73,0.23-1.44-0.1-1.95l-3.79-5.96c-0.33-0.52-0.93-0.81-1.66-0.81h-15.87
				C183.44,569.4,182.63,569.69,181.92,570.21L181.92,570.21z M184.84,582.53h5.05l-3.31,9.09h-5.05L184.84,582.53z"/>
			<path id="path67" class="st0" d="M31.8,576.16l8.12-5.95c0.71-0.52,1.52-0.81,2.25-0.81h15.88c0.73,0,1.33,0.29,1.66,0.81
				l3.8,5.96c0.33,0.52,0.37,1.22,0.1,1.95l-3.81,10.47H45.66l2.21-6.06h-5.05l-7.79,21.41h5.05l2.21-6.06h14.14l-3.81,10.47
				c-0.27,0.73-0.81,1.44-1.52,1.95l-8.12,5.96c-0.71,0.52-1.52,0.81-2.25,0.81H24.82c-0.73,0-1.33-0.29-1.66-0.81l-3.79-5.96
				c-0.33-0.52-0.37-1.22-0.1-1.95l11-30.23C30.54,577.39,31.09,576.68,31.8,576.16L31.8,576.16z"/>
			<path id="path68" class="st0" d="M75.64,570.21l-8.12,5.96c-0.71,0.52-1.25,1.22-1.52,1.95l-14.15,38.95h14.14l5.87-16.16h5.06
				l-5.88,16.16h14.14l14.13-38.95c0.27-0.73,0.23-1.44-0.1-1.95l-3.79-5.96c-0.33-0.52-0.93-0.81-1.66-0.81H77.89
				C77.16,569.4,76.35,569.69,75.64,570.21L75.64,570.21z M78.56,582.53h5.05l-3.31,9.09h-5.05L78.56,582.53z"/>
			<path id="path69" class="st0" d="M104.96,569.4l-17.35,47.67h14.14l5.88-16.16h10.47c0.73,0,1.54-0.29,2.25-0.81l6.75-4.95
				c0.71-0.52,1.25-1.22,1.52-1.95l5.86-16.09c0.27-0.73,0.23-1.44-0.1-1.95l-3.15-4.95c-0.33-0.52-0.93-0.81-1.66-0.81
				L104.96,569.4z M114.32,582.53h5.05l-3.31,9.09h-5.05L114.32,582.53z"/>
			<path id="path70" class="st0" d="M139.7,569.4l-17.35,47.67h14.14l5.88-16.16h5.05l-5.88,16.16h14.14l5.46-15.01
				c0.27-0.73,0.23-1.44-0.1-1.95l-2.44-3.84l5.23-3.84c0.71-0.52,1.25-1.22,1.52-1.95l4.5-12.35c0.27-0.73,0.23-1.44-0.1-1.95
				l-3.79-5.96c-0.33-0.52-0.93-0.81-1.66-0.81H139.7z M149.06,582.53h5.05l-3.31,9.09h-5.05L149.06,582.53z"/>
		</g>
	</g>
</g>
</svg>
