<svg id="Layer_1" data-name="Layer 1" xmlns="http://www.w3.org/2000/svg" viewBox="0 0 297.78 180"><title>logo-fr</title><path d="M105.07,30.32a5.65,5.65,0,0,0-6.81-5.83L6.8,40.7A8.6,8.6,0,0,0,0,48.9V89.64a5.63,5.63,0,0,0,6.8,5.8l91.46-16.2a8.56,8.56,0,0,0,6.81-8.2V30.32Z" style="fill:#22ae8a"/><path d="M45.46,63.66L23,59.7,6.88,56.86A9.24,9.24,0,0,1,0,48.15v55.17a9.21,9.21,0,0,0,7.27,8.79l40.93,7.2-2.77-.49C60.24,121.44,72.2,111.19,72.2,96s-12-29.68-26.75-32.3" style="fill:#235ba8"/><path d="M59.64,55.65L82.09,59.6l16.12,2.85a9.26,9.26,0,0,1,6.85,8.71V16a9.18,9.18,0,0,0-7.28-8.79L56.86,0l2.78,0.49C44.85-2.13,32.89,8.13,32.89,23.35s12,29.7,26.75,32.31" style="fill:#235ba8"/><path d="M153.65,157.58c0.51,1.5-.24,2.43-1.81,2.43H141.06a2.29,2.29,0,0,1-2.43-1.84l-1.73-6.11H119.1l-1.73,6.11a2.29,2.29,0,0,1-2.43,1.84H104.15c-1.57,0-2.32-.94-1.81-2.43L119,106.52a2.38,2.38,0,0,1,2.48-1.81h13.08a2.38,2.38,0,0,1,2.48,1.81l16.64,51.06h0Zm-20.23-17.74L128,120.75l-5.42,19.09h10.84Z" style="fill:#235ba8"/><path d="M155.36,144.57a2,2,0,0,1,2.16-2.24h9.87c1.3,0,1.89.67,2.28,2,0.71,2.33,2.89,3.42,6.7,3.42,4.14,0,5.8-1.64,5.8-3.75,0-2.83-3.91-4-8.69-5.54-7.67-2.5-17.51-6.37-17.51-18,0-11.24,8.86-17,19.11-17,9.79,0,18.61,4.9,19.63,16.25a2,2,0,0,1-2.16,2.24h-9.91c-1.26,0-1.82-.67-2.27-1.93C179.72,118,178,117,175.07,117c-3.36,0-5,1.57-5,3.57,0,3.1,3.83,4.34,8.74,6,7.64,2.51,17.46,6.24,17.46,17.74,0,11.24-8.85,17-20,17C165.46,161.19,156.38,156.25,155.36,144.57Z" style="fill:#235ba8"/><path d="M234.44,146.74a2,2,0,0,1,2.16,2.16v9a2,2,0,0,1-2.16,2.16h-29.6a2,2,0,0,1-2.16-2.16v-51a2,2,0,0,1,2.16-2.16H234a2,2,0,0,1,2.16,2.16v9A2,2,0,0,1,234,118H216.79v7.8h15.27a2,2,0,0,1,2.16,2.16v8.27a2,2,0,0,1-2.16,2.16H216.79v8.36h17.64Z" style="fill:#235ba8"/><path d="M295.16,154.74a1.86,1.86,0,0,1-.27,3l-6.79,5.62a2,2,0,0,1-3-.27l-4-4.57a29.64,29.64,0,0,1-12.33,2.65,28.61,28.61,0,1,1,22.71-10.69Zm-26.4-7.35a16.56,16.56,0,0,0,2.47-.18l-3.71-4.26a1.86,1.86,0,0,1,.27-3l6.83-5.62a2,2,0,0,1,3,.27l4.34,5a15.86,15.86,0,0,0,1.66-7.22c0-8.84-6.45-15-14.9-15s-14.9,6.19-14.9,15,6.45,15,14.9,15h0Z" style="fill:#235ba8"/></svg>