<?xml version="1.0" encoding="utf-8"?>
<!-- Generator: Adobe Illustrator 28.0.0, SVG Export Plug-In . SVG Version: 6.00 Build 0)  -->
<svg version="1.1" id="Layer_1" xmlns="http://www.w3.org/2000/svg" xmlns:xlink="http://www.w3.org/1999/xlink" x="0px" y="0px"
	 viewBox="0 0 254.3 100.3" style="enable-background:new 0 0 254.3 100.3;" xml:space="preserve">
<style type="text/css">
	.st0{fill:#474630;}
	.st1{fill:#476A73;}
	.st2{fill:#FFFFFF;}
	.st3{fill:#4C7043;}
	.st4{fill:#F2BF40;}
</style>
<rect class="st0" width="254.3" height="100.3"/>
<g id="Groupe_15" transform="translate(-318.315 -317.874)">
	<g id="Groupe_13" transform="translate(318.315 339.111)">
		<path id="Tracé_232" class="st1" d="M181.9,42.6H8.5V7.4h183.9l0.4,1H9.5v33.2h173L181.9,42.6z"/>
	</g>
	<path id="Tracé_233" class="st2" d="M354.7,365.9v3.4c0,2.2-1.7,3.3-5,3.3h-13.5v-17h14.5c1-0.1,2,0.2,2.9,0.8
		c0.7,0.7,1,1.6,0.9,2.5v3l-1.9,2L354.7,365.9z M350.9,361.3v-1.6 M350.5,358.5h-10.4v4h10.4 M351,368.1v-1.3 M350.5,365.3h-10.4
		v4.3h10.4"/>
	<path id="Tracé_234" class="st2" d="M363.7,355.7h17.3v2.9h-13.4v3.8h7.8v2.9h-7.8v4.2h13.6v3.2h-17.5V355.7z"/>
	<path id="Tracé_235" class="st2" d="M391.7,357.7c0.1-0.5,0.4-0.9,0.7-1.2c0.4-0.3,0.8-0.5,1.3-0.6c0.7-0.1,1.3-0.2,2-0.2h12.5
		c0.7,0,1.3,0,2,0.2c0.5,0.1,0.9,0.3,1.3,0.6c0.4,0.3,0.6,0.8,0.7,1.2c0.2,0.6,0.2,1.3,0.2,2v8.9c0,0.7-0.1,1.3-0.2,2
		c-0.1,0.5-0.4,0.9-0.7,1.2c-0.4,0.3-0.8,0.5-1.3,0.6c-0.7,0.1-1.3,0.2-2,0.2h-12.5c-0.7,0-1.3,0-2-0.2c-0.5-0.1-0.9-0.3-1.3-0.6
		c-0.4-0.3-0.6-0.8-0.7-1.2c-0.2-0.6-0.2-1.3-0.2-2v-8.9C391.5,359,391.5,358.4,391.7,357.7z M408.4,369.5v-10.7h-13v10.7
		L408.4,369.5z"/>
	<path id="Tracé_236" class="st2" d="M422.6,355.7h2.7l11.9,10c0.4,0.3,0.7,0.6,1,0.9c0.3,0.3,0.6,0.6,0.9,1c0-0.7-0.1-1.3-0.1-1.8
		c0-0.5,0-0.9,0-1.1v-8.9h3.5v16.9h-2.7l-12.5-10.5c-0.2-0.2-0.5-0.4-0.7-0.7c-0.2-0.2-0.5-0.5-0.7-0.7c0.1,0.7,0.1,1.2,0.1,1.7
		s0,0.8,0,1v9.2h-3.5L422.6,355.7z"/>
	<path id="Tracé_237" class="st2" d="M458.3,365.1l-8.8-9.4h5.3l5.8,6.5l5.8-6.5h4.6l-8.8,9.3v7.7h-4L458.3,365.1z"/>
	<path id="Tracé_238" class="st2" d="M484.6,364l-8.2-8.2h5.2l5.4,5.7l5.2-5.7h4.5l-7.4,7.8l9.1,9.2h-5.4l-6.2-6.6l-5.7,6.6h-4.7
		L484.6,364z"/>
	<g id="Groupe_14" transform="translate(474.223 317.874)">
		<path id="Mountain_Path" class="st3" d="M44.9,47.1L25.7,76.3l3,2.9L13.6,94.8l18.2-15.7l-3.6-3.3l15.5-20.2l41.1,39.3L44.9,47.1z
			"/>
		<path id="Direction" class="st1" d="M27.9,13.2l12.4,23.3L8.5,91.6l36-55L27.9,13.2z"/>
		<path id="Lightning" class="st4" d="M58.1,36.5l-3.6,4.7l35.3,50.2L48.3,41.8l3.4-5.3L30.5,7.4"/>
	</g>
</g>
</svg>
