<?xml version="1.0" encoding="UTF-8" standalone="no"?>
<!-- Created with Inkscape (http://www.inkscape.org/) -->
<svg
   xmlns:svg="http://www.w3.org/2000/svg"
   xmlns="http://www.w3.org/2000/svg"
   version="1.0"
   width="736.29919"
   height="717.16534"
   id="svg3383">
  <defs
     id="defs3385" />
  <g
     transform="translate(-304.91346,-414.94923)"
     id="layer1">
    <g
       transform="translate(17.654327,17.632987)"
       id="g3572">
      <path
         d="M 307.52421,812.92778 L 336.56899,812.92778 L 336.56899,763.97592 L 370.83526,763.97592 L 370.83526,812.92778 L 399.88004,812.92778 L 399.88004,698.70679 L 370.83526,698.70679 L 370.83526,742.43711 L 336.56899,742.43711 L 336.56899,698.70679 L 307.52421,698.70679 L 307.52421,812.92778 M 412.93386,812.92778 L 442.46815,812.92778 L 450.95314,788.61503 L 491.90952,788.61503 L 499.90499,812.92778 L 531.88687,812.92778 L 489.78828,698.70679 L 454.37975,698.70679 L 412.93386,812.92778 M 485.05625,766.91302 L 457.6432,766.91302 L 471.83928,722.36687 L 472.00243,722.36687 L 485.05625,766.91302 M 541.02453,812.92778 L 570.72198,812.92778 L 570.72198,767.89208 L 595.36113,812.92778 L 633.05403,812.92778 L 604.00923,765.44449 C 614.77863,760.87566 625.05853,748.96402 625.05853,733.78896 C 625.05853,714.04504 609.55713,698.38043 590.13955,698.54363 L 541.02453,698.70679 L 541.02453,812.92778 M 570.23247,724.32492 C 580.34918,724.32492 593.89253,723.8354 593.89253,737.54193 C 593.89253,749.45353 581.00189,750.10624 570.23247,750.10624 L 570.23247,724.32492 M 661.77243,812.92778 L 690.81723,812.92778 L 690.81723,721.22465 L 717.57753,721.22465 L 717.57753,698.70679 L 635.01213,698.70679 L 635.01213,721.22465 L 661.77243,721.22465 L 661.77243,812.92778 M 731.28403,812.92778 L 760.16563,812.92778 L 760.16563,698.70679 L 731.28403,698.70679 L 731.28403,812.92778 M 788.72093,812.92778 L 815.48123,812.92778 L 814.33903,734.76798 L 814.82853,734.76798 L 852.84783,812.92778 L 888.90903,812.92778 L 888.90903,698.70679 L 862.47503,698.70679 L 862.80133,776.37707 L 862.47503,776.37707 L 825.76113,698.70679 L 788.72093,698.70679 L 788.72093,812.92778 M 1004.1091,751.08526 L 976.85923,751.08526 L 976.04343,790.40991 C 973.43263,791.71532 969.67963,792.36799 965.76353,792.36799 C 944.55103,792.36799 929.37583,778.66147 929.37583,756.30679 C 929.37583,729.70964 948.79353,719.26657 972.29043,719.26657 C 979.14363,719.26657 989.74993,721.22465 998.88763,726.77251 L 1001.172,701.80708 C 990.56573,697.56457 975.55383,696.74871 968.37423,696.74871 C 928.23363,696.74871 899.35203,713.22918 899.35203,756.30679 C 899.35203,799.54761 932.96573,815.04902 962.01053,815.04902 C 971.96403,815.04902 985.83373,814.72266 1004.1091,809.66432 L 1004.1091,751.08526"
         style="fill:#ffd300;fill-rule:evenodd;stroke:none;stroke-width:0.036;stroke-linecap:butt;stroke-linejoin:miter;stroke-miterlimit:3.86400008;stroke-dasharray:none"
         id="path373" />
      <path
         d="M 304.91346,536.34984 C 428.59846,451.98949 538.25059,414.94923 655.08233,414.94923 C 772.07723,414.94923 893.47783,458.19004 1005.904,536.34984 C 1005.904,578.12208 1005.904,615.1623 1005.904,656.93454 C 902.45233,596.56059 771.58773,565.72093 654.26653,565.72093 C 537.92427,565.72093 432.84094,583.50677 304.91346,656.93454 C 304.91346,615.1623 304.91346,578.12208 304.91346,536.34984"
         style="fill:#ffd300;fill-rule:evenodd;stroke:none;stroke-width:0.036;stroke-linecap:butt;stroke-linejoin:miter;stroke-miterlimit:3.86400008;stroke-dasharray:none"
         id="path377" />
      <path
         d="M 304.91346,975.44785 C 428.59846,1059.8082 538.25059,1096.8486 655.08233,1096.8486 C 772.07723,1096.8486 893.47783,1053.6079 1005.904,975.44785 C 1005.904,933.51266 1005.904,896.63542 1005.904,854.86307 C 902.45233,915.07386 771.58773,945.91363 654.26653,945.91363 C 537.92427,945.91363 432.84094,928.29081 304.91346,854.86307 C 304.91346,896.63542 304.91346,933.51266 304.91346,975.44785"
         style="fill:#ffd300;fill-rule:evenodd;stroke:none;stroke-width:0.036;stroke-linecap:butt;stroke-linejoin:miter;stroke-miterlimit:3.86400008;stroke-dasharray:none"
         id="path381" />
      <path
         d="M 970.49553,472.87559 C 982.40713,472.87559 992.03433,463.24838 992.03433,451.17362 C 992.03433,439.26198 982.40713,429.63478 970.49553,429.63478 C 958.58383,429.63478 948.79353,439.26198 948.79353,451.17362 C 948.79353,463.24838 958.58383,472.87559 970.49553,472.87559 z M 970.49553,472.87559 C 982.40713,472.87559 992.03433,463.24838 992.03433,451.17362 C 992.03433,439.26198 982.40713,429.63478 970.49553,429.63478 C 958.58383,429.63478 948.79353,439.26198 948.79353,451.17362 C 948.79353,463.24838 958.58383,472.87559 970.49553,472.87559 z M 970.49553,485.60309 C 989.42353,485.60309 1004.7618,470.10165 1004.7618,451.17362 C 1004.7618,432.40872 989.42353,416.90731 970.49553,416.90731 C 951.56743,416.90731 936.06593,432.40872 936.06593,451.17362 C 936.06593,470.10165 951.56743,485.60309 970.49553,485.60309 z M 970.49553,472.87559 C 982.40713,472.87559 992.03433,463.24838 992.03433,451.17362 C 992.03433,439.26198 982.40713,429.63478 970.49553,429.63478 C 958.58383,429.63478 948.79353,439.26198 948.79353,451.17362 C 948.79353,463.24838 958.58383,472.87559 970.49553,472.87559 z M 967.39523,442.52544 C 970.00603,442.52544 973.59573,442.36228 973.59573,445.78889 C 973.59573,449.05235 970.16913,449.21554 967.39523,449.21554 L 967.39523,442.52544 z M 959.72613,465.36966 L 967.55843,465.36966 L 967.55843,453.62121 L 974.08533,465.36966 L 983.87573,465.36966 L 976.36973,453.13167 C 979.14363,451.82629 981.91763,448.88919 981.91763,444.97303 C 981.91763,439.91469 977.67513,435.83537 972.61673,435.83537 L 959.72613,435.83537 L 959.72613,465.36966"
         style="fill:#ffd300;fill-rule:evenodd;stroke:none;stroke-width:0.036;stroke-linecap:butt;stroke-linejoin:miter;stroke-miterlimit:3.86400008;stroke-dasharray:none"
         id="path385" />
    </g>
  </g>
</svg>
