<?xml version="1.0" encoding="utf-8"?>
<!-- Generator: Adobe Illustrator 28.0.0, SVG Export Plug-In . SVG Version: 6.00 Build 0)  -->
<svg version="1.1" id="Calque_1" xmlns="http://www.w3.org/2000/svg" xmlns:xlink="http://www.w3.org/1999/xlink" x="0px" y="0px"
	 viewBox="0 0 333.4 305.4" style="enable-background:new 0 0 333.4 305.4;" xml:space="preserve">
<style type="text/css">
	.st0{fill:#454344;}
	.st1{fill:#DCDCDC;}
	.st2{fill:#1D1D1B;}
</style>
<rect class="st0" width="333.4" height="305.4"/>
<g>
	<path class="st1" d="M72.5,36.4v31.5c0,12.3-7.7,13.2-18.3,13.2s-18.2-0.8-18.2-13.2V36.4h8.4v31.5c0,4.6,1.6,5.9,9.8,5.9
		s9.9-1.1,9.9-5.9V36.4H72.5z"/>
	<path class="st1" d="M96.6,74.1c7.7,0,8.7-1.4,8.7-6.5c0-6.3-3.3-5.5-9.9-5.9c-9.5-0.6-16.9-0.2-16.9-13.1
		c0-12.2,7.6-12.5,18.1-12.5h15.6l-7,6.9c0,0-2.7,0.1-8.6,0.1c-8.4,0-9.7,0.8-9.7,5.6c0,5.4,1.1,5.6,9.6,6.1
		c13.5,0.8,17.2,1.5,17.2,12.8c0,12.5-5.8,13.5-17.1,13.5H78.3v-7L96.6,74.1C96.6,74,96.6,74.1,96.6,74.1z"/>
	<path class="st1" d="M127.9,80.7h-8.4V36.4h8.4C127.9,36.4,127.9,80.7,127.9,80.7z"/>
	<path class="st1" d="M167.8,36.4h8.4v44.3h-14l-18.6-37h-0.3l0.7,37h-8.4V36.4h13.9l18.8,37h0.2L167.8,36.4
		C167.8,36.4,167.8,36.4,167.8,36.4z"/>
	<path class="st1" d="M191.3,72.3l-2.8,8.4h-8.7l14.5-44.3h12.4l14.8,44.3h-8.5l-2.9-8.4C210.2,72.3,191.3,72.3,191.3,72.3z
		 M200.8,42.9h-0.1l-7.5,23h15.1L200.8,42.9L200.8,42.9L200.8,42.9z"/>
	<path class="st1" d="M261.6,57.2v8c0,13.1-3.3,15.8-18.9,15.8c-14,0-19.3-2.5-19.3-17.5V53.4c0-14.8,5.7-17.3,19.3-17.3h18.9l0,7.2
		l-18.9,0c-9.8,0-10.8,1.5-10.9,10.1v10.2c0.1,9.3,1.5,10.2,10.9,10.2c8,0,10.5-0.2,10.5-8.6v-1.6h-11v-6.4H261.6L261.6,57.2z"/>
	<path class="st1" d="M275.6,54.7h20.5v7h-20.5v11.8h21.8v7.3h-30.2V36.4h30v7.3h-21.6L275.6,54.7L275.6,54.7L275.6,54.7z"/>
</g>
<polygon class="st1" points="36.1,117.7 74,117.7 74,231.5 146.8,231.5 107.5,269.4 36.1,269.4 "/>
<path class="st2" d="M129.3,269.4l86.6-83.5h32.9l-0.5-30.4l31.7-31.3c0,0,9.8,7.8,6.7,21.4v59.4c0,0-1.2,17-18.8,18.8l29.4,45.6
	h-44.9l-29.6-45.6h-19.5v45.6L129.3,269.4L129.3,269.4L129.3,269.4z"/>
<polygon class="st1" points="163.4,213.7 163.4,117.7 263.1,117.7 229.6,149.9 201.4,150.4 201.4,176.8 "/>
</svg>
