<?xml version="1.0" encoding="utf-8"?>
<!-- Generator: Adobe Illustrator 15.1.0, SVG Export Plug-In . SVG Version: 6.00 Build 0)  -->
<!DOCTYPE svg PUBLIC "-//W3C//DTD SVG 1.1//EN" "http://www.w3.org/Graphics/SVG/1.1/DTD/svg11.dtd">
<svg version="1.1" id="Rheinmetall_Defence_4c_positiv"
	 xmlns="http://www.w3.org/2000/svg" xmlns:xlink="http://www.w3.org/1999/xlink" x="0px" y="0px" width="184.252px"
	 height="54.029px" viewBox="14.174 15.506 184.252 54.029" enable-background="new 14.174 15.506 184.252 54.029"
	 xml:space="preserve">
<g>
	<path id="DEFENCE" fill="#3E3D40" d="M50.566,69.352c-0.805,0-1.133-0.342-1.133-1.158v-6.248c0-0.83,0.328-1.194,1.156-1.194
		h1.109c1.011,0,1.693,0.073,2.229,0.231c1.476,0.426,2.169,1.778,2.169,3.972c0,2.01-0.5,3.472-2.218,4.104
		c-0.621,0.231-1.632,0.293-2.29,0.293H50.566z M51.028,68.329h0.853c0.707,0,1.243-0.086,1.632-0.268
		c1.109-0.5,1.401-1.621,1.401-3.107c0-1.438-0.292-2.473-1.304-2.924c-0.414-0.195-0.986-0.269-1.778-0.269h-0.853
		c-0.269,0-0.413,0.134-0.413,0.464v5.616C50.566,68.182,50.7,68.329,51.028,68.329z M59.214,69.352
		c-0.804,0-1.193-0.269-1.193-1.183v-6.213c0-0.841,0.316-1.206,1.182-1.206h3.57c0.171,0,0.269,0.048,0.269,0.256v0.523
		c0,0.183-0.085,0.244-0.269,0.244h-3.216c-0.257,0-0.402,0.135-0.402,0.451v2.143h3.266c0.17,0,0.28,0.05,0.28,0.269v0.513
		c0,0.183-0.097,0.244-0.28,0.244h-3.266v2.448c0,0.341,0.134,0.487,0.475,0.487h3.327c0.17,0,0.28,0.048,0.28,0.268v0.512
		c0,0.183-0.097,0.244-0.28,0.244H59.214z M65.816,69.376h-0.609c-0.17,0-0.256-0.099-0.256-0.293v-7.127
		c0-0.829,0.329-1.206,1.157-1.206h3.546c0.17,0,0.28,0.048,0.28,0.256v0.523c0,0.183-0.099,0.244-0.28,0.244h-3.156
		c-0.255,0-0.415,0.135-0.415,0.476v2.412h3.06c0.17,0,0.279,0.048,0.279,0.268v0.511c0,0.184-0.098,0.244-0.279,0.244h-3.06v3.387
		C66.085,69.266,65.999,69.376,65.816,69.376z M72.529,69.352c-0.804,0-1.194-0.269-1.194-1.183v-6.213
		c0-0.841,0.317-1.206,1.182-1.206h3.569c0.17,0,0.27,0.048,0.27,0.256v0.523c0,0.183-0.086,0.244-0.27,0.244H72.87
		c-0.256,0-0.402,0.135-0.402,0.451v2.143h3.266c0.171,0,0.279,0.05,0.279,0.269v0.513c0,0.183-0.097,0.244-0.279,0.244h-3.266
		v2.448c0,0.341,0.135,0.487,0.476,0.487h3.326c0.171,0,0.279,0.048,0.279,0.268v0.512c0,0.183-0.097,0.244-0.279,0.244H72.529z
		 M79.094,69.376h-0.571c-0.171,0-0.256-0.099-0.256-0.293v-7.565c0-0.572,0.22-0.815,0.756-0.815h0.305
		c0.475,0,0.597,0.206,0.804,0.597c2.655,4.874,3.033,5.665,3.509,6.676c-0.025-0.998-0.025-2.218-0.025-6.906
		c0-0.196,0.085-0.342,0.293-0.342h0.548c0.194,0,0.255,0.121,0.255,0.316v7.723c0,0.562-0.304,0.659-0.646,0.659h-0.269
		c-0.475,0-0.608-0.183-0.864-0.659c-2.961-5.445-3.204-5.92-3.582-6.724c0.012,1.022,0.023,2.278,0.023,7.042
		C79.376,69.253,79.291,69.376,79.094,69.376z M90.072,68.524c0.889,0,1.328-0.11,1.852-0.244c0.171-0.049,0.317-0.086,0.402-0.086
		s0.158,0.037,0.207,0.17c0.049,0.158,0.098,0.365,0.098,0.5c0,0.109-0.072,0.207-0.28,0.279c-0.769,0.256-1.571,0.366-2.485,0.366
		c-2.132,0-3.351-1.012-3.351-4.325c0-3.191,0.853-4.593,3.63-4.593c0.779,0,1.534,0.062,2.022,0.183
		c0.207,0.049,0.292,0.146,0.292,0.28c0,0.109-0.049,0.402-0.122,0.585c-0.037,0.098-0.122,0.133-0.207,0.133
		c-0.097,0-0.23-0.022-0.401-0.061c-0.342-0.073-0.816-0.134-1.549-0.134c-2.168,0-2.496,1.353-2.496,3.423
		C87.684,67.098,88.037,68.524,90.072,68.524z M95.115,69.352c-0.804,0-1.194-0.269-1.194-1.183v-6.213
		c0-0.841,0.317-1.206,1.183-1.206h3.569c0.17,0,0.269,0.048,0.269,0.256v0.523c0,0.183-0.085,0.244-0.269,0.244h-3.216
		c-0.256,0-0.402,0.135-0.402,0.451v2.143h3.266c0.171,0,0.28,0.05,0.28,0.269v0.513c0,0.183-0.098,0.244-0.28,0.244h-3.266v2.448
		c0,0.341,0.136,0.487,0.476,0.487h3.326c0.171,0,0.28,0.048,0.28,0.268v0.512c0,0.183-0.098,0.244-0.28,0.244H95.115z"/>
	<path id="RHEINMETALL_7_" fill="#3E3D40" d="M51.973,56.86h-1.93c-0.373,0-0.604-0.209-0.604-0.696V43.076
		c0-1.765,0.649-2.65,2.58-2.65h1.766c2.278,0,3.836,0.21,4.72,0.559c1.766,0.72,2.371,2.349,2.371,4.347
		c0,1.999-0.675,3.672-2.627,4.485l3.163,5.72c0.139,0.254,0.324,0.558,0.324,0.837c0,0.232-0.162,0.395-0.348,0.418
		c-0.21,0.047-1.839,0.115-2.325,0.115c-0.418,0-0.65-0.209-0.814-0.533l-3.044-5.975c-0.395,0.023-0.813,0.023-1.278,0.023h-1.278
		v5.741C52.647,56.628,52.368,56.86,51.973,56.86z M54.019,47.866c0.999,0,1.813-0.094,2.348-0.279
		c0.744-0.279,1.208-1.045,1.208-2.092c0-1.231-0.372-1.905-1.162-2.186c-0.465-0.164-1.186-0.21-2.093-0.21h-0.906
		c-0.559,0-0.767,0.256-0.767,0.768v3.999H54.019L54.019,47.866z M66.757,56.86h-1.952c-0.372,0-0.604-0.209-0.604-0.696V41.101
		c0-0.419,0.186-0.698,0.627-0.698h2c0.441,0,0.581,0.256,0.581,0.674v5.859h6.37v-5.835c0-0.419,0.185-0.698,0.65-0.698h1.976
		c0.441,0,0.581,0.256,0.581,0.674v15.085c0,0.441-0.255,0.697-0.65,0.697h-1.93c-0.372,0-0.626-0.209-0.626-0.697v-6.415h-6.37
		v6.416C67.408,56.606,67.153,56.86,66.757,56.86z M83.285,56.837c-1.628,0-2.487-0.651-2.487-2.487V42.983
		c0-1.744,0.79-2.557,2.487-2.557h6.972c0.443,0,0.651,0.141,0.651,0.628v1.627c0,0.395-0.208,0.535-0.651,0.535h-5.508
		c-0.488,0-0.744,0.256-0.744,0.859v2.86h5.671c0.419,0,0.65,0.139,0.65,0.627v1.627c0,0.396-0.231,0.558-0.65,0.558h-5.671v3.394
		c0,0.627,0.232,0.907,0.883,0.907h5.767c0.417,0,0.649,0.116,0.649,0.627v1.604c0,0.396-0.209,0.558-0.649,0.558H83.285
		L83.285,56.837z M96.922,56.86H94.97c-0.372,0-0.604-0.209-0.604-0.696V41.101c0-0.419,0.185-0.698,0.627-0.698h1.999
		c0.442,0,0.581,0.256,0.581,0.674v15.085C97.574,56.606,97.318,56.86,96.922,56.86z M104.044,56.86h-1.859
		c-0.372,0-0.604-0.209-0.604-0.696V42.519c0-1.464,0.58-2.185,2.137-2.185h0.885c1.324,0,1.628,0.581,2.092,1.557
		c3.742,7.672,4.416,9.229,5.136,10.973c-0.069-2.115-0.069-4.139-0.069-11.6c0-0.512,0.232-0.86,0.698-0.86h1.744
		c0.464,0,0.626,0.325,0.626,0.79v13.994c0,1.533-0.859,1.813-1.812,1.813h-0.722c-1.348,0-1.744-0.467-2.395-1.79
		c-4.161-8.508-4.533-9.392-5.253-11.111c0.022,1.604,0.046,3.185,0.046,12.063C104.693,56.606,104.438,56.86,104.044,56.86z
		 M121.357,56.86h-1.977c-0.372,0-0.558-0.254-0.558-0.696V42.681c0-1.208,0.302-2.348,2.278-2.348h0.696
		c1.627,0,1.743,0.418,2.533,2.417c1.604,4.114,2.069,5.348,2.534,6.766c0.511-1.465,0.884-2.604,2.488-6.813
		c0.65-1.719,0.883-2.371,2.649-2.371h0.79c1.884,0,2,0.93,2,2.348v13.412c0,0.559-0.231,0.768-0.65,0.768h-1.953
		c-0.371,0-0.604-0.209-0.604-0.744c0-8.367,0.023-10.227,0.093-12.528c-0.582,1.905-1.046,3.276-3.208,8.972
		c-0.371,0.975-0.627,1.37-1.439,1.37h-0.373c-0.767,0-1.115-0.372-1.441-1.278c-2.067-5.578-2.603-7.02-3.3-9.063
		c0.069,2.302,0.069,4.299,0.069,12.599C121.985,56.559,121.823,56.86,121.357,56.86z M141.093,56.837
		c-1.626,0-2.485-0.651-2.485-2.487V42.983c0-1.744,0.79-2.557,2.485-2.557h6.975c0.44,0,0.648,0.141,0.648,0.628v1.627
		c0,0.395-0.208,0.535-0.648,0.535h-5.51c-0.488,0-0.744,0.256-0.744,0.859v2.86h5.672c0.418,0,0.65,0.139,0.65,0.627v1.627
		c0,0.396-0.232,0.558-0.65,0.558h-5.672v3.394c0,0.627,0.23,0.907,0.883,0.907h5.765c0.418,0,0.651,0.116,0.651,0.627v1.604
		c0,0.396-0.21,0.558-0.651,0.558H141.093L141.093,56.837z M157.411,56.86h-1.974c-0.374,0-0.628-0.231-0.628-0.696V43.216h-3.01
		c-0.44,0-0.651-0.141-0.651-0.535v-1.627c0-0.487,0.21-0.628,0.651-0.628h10.025c0.441,0,0.652,0.158,0.492,0.628l-0.572,1.627
		c-0.122,0.39-0.33,0.535-0.772,0.535h-2.91v12.947C158.062,56.628,157.784,56.86,157.411,56.86z M164.536,56.116
		c-0.185,0.56-0.324,0.791-0.791,0.791c-0.463,0-1.997-0.047-2.3-0.115c-0.255-0.068-0.325-0.279-0.325-0.464
		c0-0.21,0.069-0.488,0.162-0.744l4.556-13.25c0.465-1.348,0.813-1.999,2.488-1.999h0.744c1.557,0,1.79,0.605,2.231,1.93
		l4.463,13.272c0.093,0.254,0.162,0.511,0.162,0.767c0,0.186-0.093,0.396-0.304,0.488c-0.278,0.115-1.626,0.115-2.301,0.115
		c-0.463,0-0.627-0.231-0.813-0.791l-1.185-3.508h-5.649L164.536,56.116z M170.604,49.887c-1.279-4.09-1.676-5.393-2.046-6.765
		c-0.373,1.349-0.79,2.696-2.094,6.765H170.604z M180.369,56.837c-1.58,0-2.439-0.698-2.439-2.372V41.101
		c0-0.419,0.187-0.698,0.627-0.698h1.997c0.443,0,0.583,0.256,0.583,0.674v12.111c0,0.559,0.232,0.86,0.859,0.86h4.661
		c0.417,0,0.649,0.116,0.649,0.627v1.604c0,0.396-0.232,0.558-0.649,0.558H180.369L180.369,56.837z M191.49,56.837
		c-1.582,0-2.441-0.698-2.441-2.372V41.101c0-0.419,0.186-0.698,0.627-0.698h2c0.441,0,0.581,0.256,0.581,0.674v12.111
		c0,0.559,0.233,0.86,0.858,0.86h4.66c0.419,0,0.65,0.116,0.65,0.627v1.604c0,0.396-0.231,0.558-0.65,0.558H191.49L191.49,56.837z"
		/>
	<g id="Bildmarke_1_">
		<path fill="#007EC1" d="M49.002,15.579c0,0-31.6,14.071-31.601,14.072c-2.591,1.149-3.227,2.875-3.227,4.09v14.875v16.627
			c0,0.324,0.328,0.589,0.674,0.439l16.395-7.296c0.981-0.479,2.277-1.595,2.277-3.819V37.076l13.695-6.104
			c1.42-0.671,2.425-2.536,2.425-4.999c0-0.005,0-8.333,0-9.948C49.642,15.628,49.362,15.433,49.002,15.579z"/>
		<path fill="#00406E" d="M14.848,65.682l16.395-7.296c0.981-0.479,2.277-1.595,2.277-3.819V37.076c0,0-16.124,7.271-16.123,7.271
			l0,0c-2.677,1.188-3.196,2.962-3.224,4.269v16.627C14.175,65.567,14.503,65.833,14.848,65.682z"/>
		<path fill="#001836" d="M14.175,48.616c0.027-1.307,0.546-3.082,3.224-4.269l0,0c-0.001,0,16.123-7.271,16.123-7.271v2.863
			l-16.123,5.993c-2.399,0.9-3.196,2.646-3.224,3.953V48.616z"/>
	</g>
</g>
</svg>
